<svg width="1370px" height="619px" viewBox="-589.38671875 -106.4453125 1370 619" xmlns="http://www.w3.org/2000/svg" xmlns:xlink="http://www.w3.org/1999/xlink" style="display: block; letter-spacing: normal; word-spacing: normal; width: 1370px; height: 619px;"><style>.no-tooltips { pointer-events: none; }</style><g transform="matrix(1, 0, 0, 1, 326, 193)" data-class-name="Node" data-key="607685db-a48b-4836-b105-8f21cdeed2d7"><g transform="matrix(1, 0, 0, 1, 0, 0)"><path stroke="#B2DFB2" fill="#FFFFFF" stroke-width="5" stroke-linecap="butt" stroke-linejoin="miter" stroke-miterlimit="10" d="M 57.5,0 C 89.25637311527063,0 115,14.550745630499208 115,32.5 C 115,50.44925436950079 89.25637311527063,65 57.5,65 C 25.74362688472937,65 0,50.44925436950079 0,32.5 C 0,14.550745630499208 25.74362688472937,0 57.5,0 z" transform="matrix(1, 0, 0, 1, 2.5, 2.5)" id="sitkatech-sitkatestprogram-2026-00002:92f904e6-ba9c-4dae-8a02-57d92c97d9ca" data-identifier="" data-name="Coral reefs" data-diagram-factor-type="Target"/><text x="33.5" y="25.9048828125" style="font: normal normal 12px &quot;Roboto&quot;" text-anchor="middle" fill="#1C1C1C" transform="matrix(1, 0, 0, 1, 26.5, 12.5)" class="no-tooltips">Coral reefs</text></g></g><g transform="matrix(1, 0, 0, 1, 177, 198)" data-class-name="Node" data-key="74679e3b-6577-4460-9134-8c280108f4cd"><g transform="matrix(1, 0, 0, 1, 0, 0)"><path stroke="#DF88D5" fill="#FFFFFF" stroke-width="5" stroke-linecap="butt" stroke-linejoin="miter" stroke-miterlimit="10" d="M 0,0 L 115,0 L 115,55 L 0,55 z" transform="matrix(1, 0, 0, 1, 2.5, 2.5)" id="sitkatech-sitkatestprogram-2026-00002:cf51aa9b-895c-4356-848c-ff6128eb6dbe" data-identifier="" data-name="Fishers stop fishing in Eastern Bay" data-diagram-factor-type="Threat Reduction Result"/><g transform="matrix(1, 0, 0, 1, 0, 0)"><text x="51.5" y="11.2853515625" style="font: normal normal 12px &quot;Roboto&quot;" text-anchor="middle" fill="#1C1C1C" transform="matrix(1, 0, 0, 1, 8.5, 8.5)" class="no-tooltips">Fishers stop</text><text x="51.5" y="24.9048828125" style="font: normal normal 12px &quot;Roboto&quot;" text-anchor="middle" fill="#1C1C1C" transform="matrix(1, 0, 0, 1, 8.5, 8.5)" class="no-tooltips">fishing in Eastern</text><text x="51.5" y="38.5244140625" style="font: normal normal 12px &quot;Roboto&quot;" text-anchor="middle" fill="#1C1C1C" transform="matrix(1, 0, 0, 1, 8.5, 8.5)" class="no-tooltips">Bay</text></g></g></g><g transform="matrix(1, 0, 0, 1, 27, 198)" data-class-name="Node" data-key="55471ba5-02af-4fdf-8eac-8d155dc65a36"><g transform="matrix(1, 0, 0, 1, 0, 0)"><path stroke="#9AD0E7" fill="#FFFFFF" stroke-width="5" stroke-linecap="butt" stroke-linejoin="miter" stroke-miterlimit="10" d="M 0,0 L 115,0 L 115,55 L 0,55 z" transform="matrix(1, 0, 0, 1, 2.5, 2.5)" id="sitkatech-sitkatestprogram-2026-00002:092b830a-1238-4d66-a153-9f2f91c84352" data-identifier="" data-name="Fishers adopt new fishery" data-diagram-factor-type="Intermediate Result"/><g transform="matrix(1, 0, 0, 1, 0, 0)"><text x="51.5" y="18.0951171875" style="font: normal normal 12px &quot;Roboto&quot;" text-anchor="middle" fill="#1C1C1C" transform="matrix(1, 0, 0, 1, 8.5, 8.5)" class="no-tooltips">Fishers adopt new</text><text x="51.5" y="31.7146484375" style="font: normal normal 12px &quot;Roboto&quot;" text-anchor="middle" fill="#1C1C1C" transform="matrix(1, 0, 0, 1, 8.5, 8.5)" class="no-tooltips">fishery</text></g></g></g><g transform="matrix(1, 0, 0, 1, -122, 198)" data-class-name="Node" data-key="1e8402dc-a13b-4c54-a113-1f47901b82cc"><g transform="matrix(1, 0, 0, 1, 0, 0)"><path stroke="#F4DC5B" fill="#FFFFFF" stroke-width="5" stroke-linecap="butt" stroke-linejoin="miter" stroke-miterlimit="10" d="M 114.99999999999999,27.5 L 86.25,55 L 28.749999999999996,55 L 0,27.5 L 28.749999999999996,0 L 86.25,0 L 114.99999999999999,27.5 z" transform="matrix(1, 0, 0, 1, 2.5, 2.5)" id="sitkatech-sitkatestprogram-2026-00002:57b3d738-d7d8-44af-9fee-ca3de2b35688" data-identifier="" data-name="Develop sustainable ocean fishery" data-diagram-factor-type="Strategy"/><g transform="matrix(1, 0, 0, 1, 0, 0)" clip-path="url(#CLIP191290)"><text x="35.5" y="10.2146484375" style="font: normal normal 12px &quot;Roboto&quot;" text-anchor="middle" fill="#1C1C1C" transform="matrix(1, 0, 0, 1, 24.5, 3.5)" class="no-tooltips">Develop</text><text x="35.5" y="23.834179687499997" style="font: normal normal 12px &quot;Roboto&quot;" text-anchor="middle" fill="#1C1C1C" transform="matrix(1, 0, 0, 1, 24.5, 3.5)" class="no-tooltips">sustainable</text><text x="35.5" y="37.4537109375" style="font: normal normal 12px &quot;Roboto&quot;" text-anchor="middle" fill="#1C1C1C" transform="matrix(1, 0, 0, 1, 24.5, 3.5)" class="no-tooltips">ocean</text><text x="35.5" y="51.0732421875" style="font: normal normal 12px &quot;Roboto&quot;" text-anchor="middle" fill="#1C1C1C" transform="matrix(1, 0, 0, 1, 24.5, 3.5)" class="no-tooltips">fishery</text></g></g></g><g transform="matrix(1, 0, 0, 1, -7.000000000000014, 223)" data-class-name="Link" data-key="cb4052d9-9adb-4942-917d-0305ee2ecbfe" data-from-key="1e8402dc-a13b-4c54-a113-1f47901b82cc" data-to-key="55471ba5-02af-4fdf-8eac-8d155dc65a36"><path stroke="#757575" fill="none" stroke-width="2" stroke-linecap="butt" stroke-linejoin="miter" stroke-miterlimit="10" d="M 0,0 L 29.000000000000014,0" transform="matrix(1, 0, 0, 1, 5, 5)"/><path stroke="transparent" fill="none" stroke-width="10" stroke-linecap="butt" stroke-linejoin="miter" stroke-miterlimit="10" d="M 0,0 L 29.000000000000014,0" transform="matrix(1, 0, 0, 1, 5, 5)"/><path stroke="#757575" fill="#757575" stroke-width="1" stroke-linecap="butt" stroke-linejoin="miter" stroke-miterlimit="10" d="M 0,0 L 8,4 L 0,8 L 2,4 z" transform="matrix(1, 0, 0, 1, 25.500000000000014, 1)"/></g><g transform="matrix(1, 0, 0, 1, 142, 223)" data-class-name="Link" data-key="75b3ae6d-0625-437d-b1f9-b65f697e1e65" data-from-key="55471ba5-02af-4fdf-8eac-8d155dc65a36" data-to-key="74679e3b-6577-4460-9134-8c280108f4cd"><path stroke="#757575" fill="none" stroke-width="2" stroke-linecap="butt" stroke-linejoin="miter" stroke-miterlimit="10" d="M 0,0 L 30,0" transform="matrix(1, 0, 0, 1, 5, 5)"/><path stroke="transparent" fill="none" stroke-width="10" stroke-linecap="butt" stroke-linejoin="miter" stroke-miterlimit="10" d="M 0,0 L 30,0" transform="matrix(1, 0, 0, 1, 5, 5)"/><path stroke="#757575" fill="#757575" stroke-width="1" stroke-linecap="butt" stroke-linejoin="miter" stroke-miterlimit="10" d="M 0,0 L 8,4 L 0,8 L 2,4 z" transform="matrix(1, 0, 0, 1, 26.5, 1)"/></g><g transform="matrix(1, 0, 0, 1, 292, 223)" data-class-name="Link" data-key="b96c2750-1d69-47ab-853e-83aeb4475a65" data-from-key="74679e3b-6577-4460-9134-8c280108f4cd" data-to-key="607685db-a48b-4836-b105-8f21cdeed2d7"><path stroke="#757575" fill="none" stroke-width="2" stroke-linecap="butt" stroke-linejoin="miter" stroke-miterlimit="10" d="M 0,0 L 29,0" transform="matrix(1, 0, 0, 1, 5, 5)"/><path stroke="transparent" fill="none" stroke-width="10" stroke-linecap="butt" stroke-linejoin="miter" stroke-miterlimit="10" d="M 0,0 L 29,0" transform="matrix(1, 0, 0, 1, 5, 5)"/><path stroke="#757575" fill="#757575" stroke-width="1" stroke-linecap="butt" stroke-linejoin="miter" stroke-miterlimit="10" d="M 0,0 L 8,4 L 0,8 L 2,4 z" transform="matrix(1, 0, 0, 1, 25.5, 1)"/></g></svg>