<svg width="1370px" height="619px" viewBox="-663.58984375 -51.75 1370 619" xmlns="http://www.w3.org/2000/svg" xmlns:xlink="http://www.w3.org/1999/xlink" style="display: block; letter-spacing: normal; word-spacing: normal; width: 1370px; height: 619px;"><style>.no-tooltips { pointer-events: none; }</style><g transform="matrix(1, 0, 0, 1, 327, 65)" data-class-name="Node" data-key="ce007d75-0c34-4029-9327-13fe26e3d33c"><g transform="matrix(1, 0, 0, 1, 0, 0)"><path stroke="#B2DFB2" fill="#FFFFFF" stroke-width="5" stroke-linecap="butt" stroke-linejoin="miter" stroke-miterlimit="10" d="M 57.5,0 C 89.25637311527063,0 115,14.550745630499208 115,32.5 C 115,50.44925436950079 89.25637311527063,65 57.5,65 C 25.74362688472937,65 0,50.44925436950079 0,32.5 C 0,14.550745630499208 25.74362688472937,0 57.5,0 z" transform="matrix(1, 0, 0, 1, 2.5, 2.5)" id="sitkatech-sitkatestprogram-2026-00002:c63306f2-4756-4ce7-b7fc-2630830f61ca" data-identifier="" data-name="Biodiversity health improved" data-diagram-factor-type="Target"/><g transform="matrix(1, 0, 0, 1, 0, 0)"><text x="33.5" y="12.2853515625" style="font: normal normal 12px &quot;Roboto&quot;" text-anchor="middle" fill="#1C1C1C" transform="matrix(1, 0, 0, 1, 26.5, 12.5)" class="no-tooltips">Biodiversity</text><text x="33.5" y="25.9048828125" style="font: normal normal 12px &quot;Roboto&quot;" text-anchor="middle" fill="#1C1C1C" transform="matrix(1, 0, 0, 1, 26.5, 12.5)" class="no-tooltips">health</text><text x="33.5" y="39.5244140625" style="font: normal normal 12px &quot;Roboto&quot;" text-anchor="middle" fill="#1C1C1C" transform="matrix(1, 0, 0, 1, 26.5, 12.5)" class="no-tooltips">improved</text></g></g></g><g transform="matrix(1, 0, 0, 1, 178, 70)" data-class-name="Node" data-key="b36beef8-2f2a-4a2b-9c4a-2df1f9803167"><g transform="matrix(1, 0, 0, 1, 0, 0)"><path stroke="#DF88D5" fill="#FFFFFF" stroke-width="5" stroke-linecap="butt" stroke-linejoin="miter" stroke-miterlimit="10" d="M 0,0 L 115,0 L 115,55 L 0,55 z" transform="matrix(1, 0, 0, 1, 2.5, 2.5)" id="sitkatech-sitkatestprogram-2026-00002:ea29557f-c2bb-4255-b81b-6417c572af80" data-identifier="" data-name="Threats reduced" data-diagram-factor-type="Threat Reduction Result"/><text x="51.5" y="24.9048828125" style="font: normal normal 12px &quot;Roboto&quot;" text-anchor="middle" fill="#1C1C1C" transform="matrix(1, 0, 0, 1, 8.5, 8.5)" class="no-tooltips">Threats reduced</text></g></g><g transform="matrix(1, 0, 0, 1, 28, 70)" data-class-name="Node" data-key="05b06914-64c6-44b9-8f6f-e060a64d8485"><g transform="matrix(1, 0, 0, 1, 0, 0)"><path stroke="#9AD0E7" fill="#FFFFFF" stroke-width="5" stroke-linecap="butt" stroke-linejoin="miter" stroke-miterlimit="10" d="M 0,0 L 115,0 L 115,55 L 0,55 z" transform="matrix(1, 0, 0, 1, 2.5, 2.5)" id="sitkatech-sitkatestprogram-2026-00002:695cf337-3ee3-42ca-b48e-90e4b5b8cf7e" data-identifier="" data-name="Results from actions taken, data collected" data-diagram-factor-type="Intermediate Result"/><g transform="matrix(1, 0, 0, 1, 0, 0)"><text x="51.5" y="11.2853515625" style="font: normal normal 12px &quot;Roboto&quot;" text-anchor="middle" fill="#1C1C1C" transform="matrix(1, 0, 0, 1, 8.5, 8.5)" class="no-tooltips">Results from</text><text x="51.5" y="24.9048828125" style="font: normal normal 12px &quot;Roboto&quot;" text-anchor="middle" fill="#1C1C1C" transform="matrix(1, 0, 0, 1, 8.5, 8.5)" class="no-tooltips">actions taken, data</text><text x="51.5" y="38.5244140625" style="font: normal normal 12px &quot;Roboto&quot;" text-anchor="middle" fill="#1C1C1C" transform="matrix(1, 0, 0, 1, 8.5, 8.5)" class="no-tooltips">collected</text></g></g></g><g transform="matrix(1, 0, 0, 1, -121, 70)" data-class-name="Node" data-key="c97be015-87bf-4106-842c-c8590e28e001"><g transform="matrix(1, 0, 0, 1, 0, 0)"><path stroke="#F4DC5B" fill="#FFFFFF" stroke-width="5" stroke-linecap="butt" stroke-linejoin="miter" stroke-miterlimit="10" d="M 114.99999999999999,27.5 L 86.25,55 L 28.749999999999996,55 L 0,27.5 L 28.749999999999996,0 L 86.25,0 L 114.99999999999999,27.5 z" transform="matrix(1, 0, 0, 1, 2.5, 2.5)" id="sitkatech-sitkatestprogram-2026-00002:0369b8fe-910f-4c90-94d3-8d80b66fd538" data-identifier="" data-name="Strategy" data-diagram-factor-type="Strategy"/><text x="35.5" y="29.9048828125" style="font: normal normal 12px &quot;Roboto&quot;" text-anchor="middle" fill="#1C1C1C" transform="matrix(1, 0, 0, 1, 24.5, 3.5)" class="no-tooltips">Strategy</text></g></g><g transform="matrix(1, 0, 0, 1, -6.000000000000014, 95)" data-class-name="Link" data-key="25176eea-d78b-475b-80b9-a00be085f797" data-from-key="c97be015-87bf-4106-842c-c8590e28e001" data-to-key="05b06914-64c6-44b9-8f6f-e060a64d8485"><path stroke="#757575" fill="none" stroke-width="2" stroke-linecap="butt" stroke-linejoin="miter" stroke-miterlimit="10" d="M 0,0 L 29.000000000000014,0" transform="matrix(1, 0, 0, 1, 5, 5)"/><path stroke="transparent" fill="none" stroke-width="10" stroke-linecap="butt" stroke-linejoin="miter" stroke-miterlimit="10" d="M 0,0 L 29.000000000000014,0" transform="matrix(1, 0, 0, 1, 5, 5)"/><path stroke="#757575" fill="#757575" stroke-width="1" stroke-linecap="butt" stroke-linejoin="miter" stroke-miterlimit="10" d="M 0,0 L 8,4 L 0,8 L 2,4 z" transform="matrix(1, 0, 0, 1, 25.500000000000014, 1)"/></g><g transform="matrix(1, 0, 0, 1, 143, 95)" data-class-name="Link" data-key="7c88218e-2ccc-40c7-896a-2d96ce10857a" data-from-key="05b06914-64c6-44b9-8f6f-e060a64d8485" data-to-key="b36beef8-2f2a-4a2b-9c4a-2df1f9803167"><path stroke="#757575" fill="none" stroke-width="2" stroke-linecap="butt" stroke-linejoin="miter" stroke-miterlimit="10" d="M 0,0 L 30,0" transform="matrix(1, 0, 0, 1, 5, 5)"/><path stroke="transparent" fill="none" stroke-width="10" stroke-linecap="butt" stroke-linejoin="miter" stroke-miterlimit="10" d="M 0,0 L 30,0" transform="matrix(1, 0, 0, 1, 5, 5)"/><path stroke="#757575" fill="#757575" stroke-width="1" stroke-linecap="butt" stroke-linejoin="miter" stroke-miterlimit="10" d="M 0,0 L 8,4 L 0,8 L 2,4 z" transform="matrix(1, 0, 0, 1, 26.5, 1)"/></g><g transform="matrix(1, 0, 0, 1, 293, 95)" data-class-name="Link" data-key="973d16cc-38cd-4b74-a3a1-41fe0c45b9c1" data-from-key="b36beef8-2f2a-4a2b-9c4a-2df1f9803167" data-to-key="ce007d75-0c34-4029-9327-13fe26e3d33c"><path stroke="#757575" fill="none" stroke-width="2" stroke-linecap="butt" stroke-linejoin="miter" stroke-miterlimit="10" d="M 0,0 L 29,0" transform="matrix(1, 0, 0, 1, 5, 5)"/><path stroke="transparent" fill="none" stroke-width="10" stroke-linecap="butt" stroke-linejoin="miter" stroke-miterlimit="10" d="M 0,0 L 29,0" transform="matrix(1, 0, 0, 1, 5, 5)"/><path stroke="#757575" fill="#757575" stroke-width="1" stroke-linecap="butt" stroke-linejoin="miter" stroke-miterlimit="10" d="M 0,0 L 8,4 L 0,8 L 2,4 z" transform="matrix(1, 0, 0, 1, 25.5, 1)"/></g><g transform="matrix(1, 0, 0, 1, -65.38776572354777, 124.99947954615862)" data-class-name="Link" data-key="27c419b1-ccf6-4ab0-8988-8f436a037961" data-from-key="b36beef8-2f2a-4a2b-9c4a-2df1f9803167" data-to-key="c97be015-87bf-4106-842c-c8590e28e001"><path stroke="#757575" fill="none" stroke-width="2" stroke-linecap="butt" stroke-linejoin="miter" stroke-miterlimit="10" d="M 299.0260635958882,0.0005204538413750015 L 299.21759147162317,9.002330613384856 Q 299.3877657235478,17.000520453841375 291.38794468645773,17.054030962450668 L 9.387564390274072,18.940321131655907 Q 0.38776572354777983,19.000520453841375 0.20413049158510432,10.002394087670353 L 0,0" transform="matrix(1, 0, 0, 1, 5, 5)"/><path stroke="transparent" fill="none" stroke-width="10" stroke-linecap="butt" stroke-linejoin="miter" stroke-miterlimit="10" d="M 299.0260635958882,0.0005204538413750015 L 299.21759147162317,9.002330613384856 Q 299.3877657235478,17.000520453841375 291.38794468645773,17.054030962450668 L 9.387564390274072,18.940321131655907 Q 0.38776572354777983,19.000520453841375 0.20413049158510432,10.002394087670353 L 0,0" transform="matrix(1, 0, 0, 1, 5, 5)"/><path stroke="#757575" fill="#757575" stroke-width="1" stroke-linecap="butt" stroke-linejoin="miter" stroke-miterlimit="10" d="M 0,0 L 8,4 L 0,8 L 2,4 z" transform="matrix(-0.020403914662518455, -0.9997918184634462, 0.9997918184634462, -0.020403914662518455, 1.1742660007776213, 13.579846115589365)"/></g></svg>